<svg width="1263" height="1155" xmlns="http://www.w3.org/2000/svg" xmlns:xlink="http://www.w3.org/1999/xlink" overflow="hidden"><defs><clipPath id="clip0"><rect x="-54" y="0" width="1263" height="1155"/></clipPath></defs><g clip-path="url(#clip0)" transform="translate(54 0)"><text font-family="Calibri,Calibri_MSFontService,sans-serif" font-weight="400" font-size="124" transform="matrix(1 0 0 1 774.487 338)">Modify</text><path d="M1045.9 521.707C1043.94 655.63 983.448 781.982 880.356 867.487L909.177 915.505 801.857 871.286 807.32 745.81 836.077 793.719C914.204 724.181 959.559 625.045 961.091 520.464Z" stroke="#FFFFFF" stroke-width="4.58333" stroke-miterlimit="8" fill="#4472C4" fill-rule="evenodd"/><text font-family="Calibri,Calibri_MSFontService,sans-serif" font-weight="400" font-size="124" transform="matrix(1 0 0 1 450.37 972)">Stage</text><path d="M352.317 907.648C237.479 838.718 158.573 722.968 136.379 590.882L80.3815 591.702 172.503 521.086 278.278 588.803 222.407 589.623C243.324 692.101 306.292 781.096 395.97 834.924Z" stroke="#FFFFFF" stroke-width="4.58333" stroke-miterlimit="8" fill="#4472C4" fill-rule="evenodd"/><text font-family="Calibri,Calibri_MSFontService,sans-serif" font-weight="400" font-size="124" transform="matrix(1 0 0 1 22.3024 338)">Commit</text><path d="M427.085 86.251C508.559 55.6729 597.059 48.9419 682.22 66.8463L701.898 14.4134 734.013 125.957 632.354 199.71 651.989 147.397C586.49 135.995 519.134 142.301 456.89 165.662Z" stroke="#FFFFFF" stroke-width="4.58333" stroke-miterlimit="8" fill="#4472C4" fill-rule="evenodd"/></g></svg>