<svg width="2295" height="183" xmlns="http://www.w3.org/2000/svg" xmlns:xlink="http://www.w3.org/1999/xlink" overflow="hidden"><defs><clipPath id="clip0"><rect x="441" y="143" width="2295" height="183"/></clipPath></defs><g clip-path="url(#clip0)" transform="translate(-441 -143)"><path d="M465.5 166.6C465.5 157.156 473.156 149.5 482.6 149.5L790.4 149.5C799.844 149.5 807.5 157.156 807.5 166.6L807.5 303.4C807.5 312.844 799.844 320.5 790.4 320.5L482.6 320.5C473.156 320.5 465.5 312.844 465.5 303.4Z" stroke="#FFFFFF" stroke-width="4.58333" stroke-miterlimit="8" fill="#4472C4" fill-rule="evenodd"/><text fill="#FFFFFF" font-family="Calibri,Calibri_MSFontService,sans-serif" font-weight="400" font-size="50" transform="matrix(1 0 0 1 472.942 221)">Started working <tspan font-size="50" x="31.2354" y="55">on the paper</tspan></text><path d="M807 234.5 837.5 204 837.5 219.25 944 219.25 944 249.75 837.5 249.75 837.5 265Z" stroke="#ED7D31" stroke-width="2.29167" stroke-miterlimit="8" fill="none" fill-rule="evenodd"/><path d="M944.5 166.6C944.5 157.156 952.156 149.5 961.6 149.5L1268.4 149.5C1277.84 149.5 1285.5 157.156 1285.5 166.6L1285.5 303.4C1285.5 312.844 1277.84 320.5 1268.4 320.5L961.6 320.5C952.156 320.5 944.5 312.844 944.5 303.4Z" stroke="#FFFFFF" stroke-width="4.58333" stroke-miterlimit="8" fill="#4472C4" fill-rule="evenodd"/><text fill="#FFFFFF" font-family="Calibri,Calibri_MSFontService,sans-serif" font-weight="400" font-size="50" transform="matrix(1 0 0 1 960.444 221)">Wrote proof of <tspan font-size="50" x="17.6458" y="55">Proposition 3</tspan></text><path d="M1285 234.5 1315.5 204 1315.5 219.25 1422 219.25 1422 249.75 1315.5 249.75 1315.5 265Z" stroke="#ED7D31" stroke-width="2.29167" stroke-miterlimit="8" fill="none" fill-rule="evenodd"/><path d="M1422.5 166.6C1422.5 157.156 1430.16 149.5 1439.6 149.5L1747.4 149.5C1756.84 149.5 1764.5 157.156 1764.5 166.6L1764.5 303.4C1764.5 312.844 1756.84 320.5 1747.4 320.5L1439.6 320.5C1430.16 320.5 1422.5 312.844 1422.5 303.4Z" stroke="#FFFFFF" stroke-width="4.58333" stroke-miterlimit="8" fill="#4472C4" fill-rule="evenodd"/><text fill="#FFFFFF" font-family="Calibri,Calibri_MSFontService,sans-serif" font-weight="400" font-size="50" transform="matrix(1 0 0 1 1457.2 221)">Fixed issue in <tspan font-size="50" x="41.8458" y="55">Lemma 2</tspan></text><path d="M1764 234.5 1794.5 204 1794.5 219.25 1901 219.25 1901 249.75 1794.5 249.75 1794.5 265Z" stroke="#ED7D31" stroke-width="2.29167" stroke-miterlimit="8" fill="none" fill-rule="evenodd"/><path d="M1901.5 166.6C1901.5 157.156 1909.16 149.5 1918.6 149.5L2225.4 149.5C2234.84 149.5 2242.5 157.156 2242.5 166.6L2242.5 303.4C2242.5 312.844 2234.84 320.5 2225.4 320.5L1918.6 320.5C1909.16 320.5 1901.5 312.844 1901.5 303.4Z" stroke="#FFFFFF" stroke-width="4.58333" stroke-miterlimit="8" fill="#4472C4" fill-rule="evenodd"/><text fill="#FFFFFF" font-family="Calibri,Calibri_MSFontService,sans-serif" font-weight="400" font-size="50" transform="matrix(1 0 0 1 1965.95 221)">Wrote the <tspan font-size="50" x="21.8396" y="55">abstract</tspan></text><path d="M2242 234.5 2272.5 204 2272.5 219.25 2379 219.25 2379 249.75 2272.5 249.75 2272.5 265Z" stroke="#ED7D31" stroke-width="2.29167" stroke-miterlimit="8" fill="none" fill-rule="evenodd"/><path d="M2379.5 166.6C2379.5 157.156 2387.16 149.5 2396.6 149.5L2704.4 149.5C2713.84 149.5 2721.5 157.156 2721.5 166.6L2721.5 303.4C2721.5 312.844 2713.84 320.5 2704.4 320.5L2396.6 320.5C2387.16 320.5 2379.5 312.844 2379.5 303.4Z" stroke="#507E32" stroke-width="4.58333" stroke-miterlimit="8" fill="#70AD47" fill-rule="evenodd"/><text fill="#FFFFFF" font-family="Calibri,Calibri_MSFontService,sans-serif" font-weight="400" font-size="50" transform="matrix(1 0 0 1 2395.09 249)">Posted to arXiv</text></g></svg>