<svg width="2299" height="184" xmlns="http://www.w3.org/2000/svg" xmlns:xlink="http://www.w3.org/1999/xlink" overflow="hidden"><defs><clipPath id="clip0"><rect x="-23" y="0" width="2299" height="184"/></clipPath></defs><g clip-path="url(#clip0)" transform="translate(23 0)"><path d="M0.499836 23.6999C0.499836 14.2007 8.20049 6.50003 17.6997 6.50003L326.3 6.50003C335.799 6.50003 343.5 14.2007 343.5 23.6999L343.5 161.3C343.5 170.799 335.799 178.5 326.3 178.5L17.6997 178.5C8.20049 178.5 0.499836 170.799 0.499836 161.3Z" stroke="#FFFFFF" stroke-width="4.58333" stroke-miterlimit="8" fill="#4472C4" fill-rule="evenodd"/><text fill="#FFFFFF" font-family="Calibri,Calibri_MSFontService,sans-serif" font-weight="400" font-size="50" transform="matrix(1 0 0 1 8.39291 79)">Started working <tspan font-size="50" x="31.2354" y="55">on the paper</tspan></text><path d="M343.5 92.6963 480.536 92.6963" stroke="#34599C" stroke-width="4.58333" stroke-miterlimit="8" fill="none" fill-rule="evenodd"/><path d="M480.5 23.6999C480.5 14.2007 488.201 6.50003 497.7 6.50003L806.3 6.50003C815.799 6.50003 823.5 14.2007 823.5 23.6999L823.5 161.3C823.5 170.799 815.799 178.5 806.3 178.5L497.7 178.5C488.201 178.5 480.5 170.799 480.5 161.3Z" stroke="#FFFFFF" stroke-width="4.58333" stroke-miterlimit="8" fill="#4472C4" fill-rule="evenodd"/><text fill="#FFFFFF" font-family="Calibri,Calibri_MSFontService,sans-serif" font-weight="400" font-size="50" transform="matrix(1 0 0 1 497.139 79)">Wrote proof of <tspan font-size="50" x="17.6458" y="55">Proposition 3</tspan></text><path d="M823.5 92.6963 960.536 92.6963" stroke="#3D67B1" stroke-width="4.58333" stroke-miterlimit="8" fill="none" fill-rule="evenodd"/><path d="M960.5 23.6999C960.5 14.2007 968.201 6.50003 977.7 6.50003L1285.3 6.50003C1294.8 6.50003 1302.5 14.2007 1302.5 23.6999L1302.5 161.3C1302.5 170.799 1294.8 178.5 1285.3 178.5L977.7 178.5C968.201 178.5 960.5 170.799 960.5 161.3Z" stroke="#FFFFFF" stroke-width="4.58333" stroke-miterlimit="8" fill="#4472C4" fill-rule="evenodd"/><text fill="#FFFFFF" font-family="Calibri,Calibri_MSFontService,sans-serif" font-weight="400" font-size="50" transform="matrix(1 0 0 1 995.144 79)">Fixed issue in <tspan font-size="50" x="41.8459" y="55">Lemma 2</tspan></text><path d="M1302.5 92.6963 1439.54 92.6963" stroke="#3D67B1" stroke-width="4.58333" stroke-miterlimit="8" fill="none" fill-rule="evenodd"/><path d="M1439.5 23.6999C1439.5 14.2007 1447.2 6.50003 1456.7 6.50003L1765.3 6.50003C1774.8 6.50003 1782.5 14.2007 1782.5 23.6999L1782.5 161.3C1782.5 170.799 1774.8 178.5 1765.3 178.5L1456.7 178.5C1447.2 178.5 1439.5 170.799 1439.5 161.3Z" stroke="#FFFFFF" stroke-width="4.58333" stroke-miterlimit="8" fill="#4472C4" fill-rule="evenodd"/><text fill="#FFFFFF" font-family="Calibri,Calibri_MSFontService,sans-serif" font-weight="400" font-size="50" transform="matrix(1 0 0 1 1505.13 79)">Wrote the <tspan font-size="50" x="21.8396" y="55">abstract</tspan></text><path d="M1782.5 92.6963 1919.54 92.6963" stroke="#3D67B1" stroke-width="4.58333" stroke-miterlimit="8" fill="none" fill-rule="evenodd"/><path d="M1919.5 23.6999C1919.5 14.2007 1927.2 6.50003 1936.7 6.50003L2244.3 6.50003C2253.8 6.50003 2261.5 14.2007 2261.5 23.6999L2261.5 161.3C2261.5 170.799 2253.8 178.5 2244.3 178.5L1936.7 178.5C1927.2 178.5 1919.5 170.799 1919.5 161.3Z" stroke="#507E32" stroke-width="4.58333" stroke-miterlimit="8" fill="#70AD47" fill-rule="evenodd"/><text fill="#FFFFFF" font-family="Calibri,Calibri_MSFontService,sans-serif" font-weight="400" font-size="50" transform="matrix(1 0 0 1 1935.52 106)">Posted to arXiv</text></g></svg>