<svg width="2006" height="288" xmlns="http://www.w3.org/2000/svg" xmlns:xlink="http://www.w3.org/1999/xlink" overflow="hidden"><defs><clipPath id="clip0"><rect x="-13" y="0" width="2006" height="288"/></clipPath></defs><g clip-path="url(#clip0)" transform="translate(13 0)"><rect x="0" y="0" width="1993" height="275" fill="#FFFFFF"/><path d="M0.499836 85.7001C0.499836 78.9622 5.96196 73.5001 12.6998 73.5001L232.3 73.5001C239.038 73.5001 244.5 78.9622 244.5 85.7001L244.5 183.3C244.5 190.038 239.038 195.5 232.3 195.5L12.6998 195.5C5.96196 195.5 0.499836 190.038 0.499836 183.3Z" stroke="#FFFFFF" stroke-width="4.58333" stroke-miterlimit="8" fill="#4472C4" fill-rule="evenodd"/><text fill="#FFFFFF" font-family="Calibri,Calibri_MSFontService,sans-serif" font-weight="400" font-size="37" transform="matrix(1 0 0 1 67.5509 104)">Started <tspan font-size="37" x="-57.8417" y="41">working on the </tspan><tspan font-size="37" x="11.0687" y="81">paper</tspan></text><path d="M244 134 254 124 254 129 342 129 342 139 254 139 254 144Z" stroke="#ED7D31" stroke-width="2.29167" stroke-miterlimit="8" fill="none" fill-rule="evenodd"/><path d="M342.5 85.7001C342.5 78.9622 347.962 73.5001 354.7 73.5001L574.3 73.5001C581.038 73.5001 586.5 78.9622 586.5 85.7001L586.5 183.3C586.5 190.038 581.038 195.5 574.3 195.5L354.7 195.5C347.962 195.5 342.5 190.038 342.5 183.3Z" stroke="#FFFFFF" stroke-width="4.58333" stroke-miterlimit="8" fill="#4472C4" fill-rule="evenodd"/><text fill="#FFFFFF" font-family="Calibri,Calibri_MSFontService,sans-serif" font-weight="400" font-size="37" transform="matrix(1 0 0 1 352.147 124)">Wrote proof of <tspan font-size="37" x="12.8333" y="41">Proposition 3</tspan></text><path d="M586.486 134.087 588.677 120.697 591.477 124.593 681.434 59.9362 687.034 67.7268 597.077 132.383 599.877 136.279Z" stroke="#ED7D31" stroke-width="2.29167" stroke-miterlimit="8" fill="none" fill-rule="evenodd"/><path d="M684.5 15.6999C684.5 8.96203 689.962 3.49993 696.7 3.49993L917.3 3.49993C924.038 3.49993 929.5 8.96203 929.5 15.6999L929.5 113.3C929.5 120.038 924.038 125.5 917.3 125.5L696.7 125.5C689.962 125.5 684.5 120.038 684.5 113.3Z" stroke="#FFFFFF" stroke-width="4.58333" stroke-miterlimit="8" fill="#4472C4" fill-rule="evenodd"/><text fill="#FFFFFF" font-family="Calibri,Calibri_MSFontService,sans-serif" font-weight="400" font-size="37" transform="matrix(1 0 0 1 723.506 54)">Worked on <tspan font-size="37" x="14.5291" y="41">Section 2</tspan></text><path d="M929 63.4999 938.5 54 938.5 58.7499 1026 58.7499 1026 68.2499 938.5 68.2499 938.5 72.9999Z" stroke="#ED7D31" stroke-width="2.29167" stroke-miterlimit="8" fill="none" fill-rule="evenodd"/><path d="M1026.5 15.6999C1026.5 8.96203 1031.96 3.49993 1038.7 3.49993L1259.3 3.49993C1266.04 3.49993 1271.5 8.96203 1271.5 15.6999L1271.5 113.3C1271.5 120.038 1266.04 125.5 1259.3 125.5L1038.7 125.5C1031.96 125.5 1026.5 120.038 1026.5 113.3Z" stroke="#FFFFFF" stroke-width="4.58333" stroke-miterlimit="8" fill="#4472C4" fill-rule="evenodd"/><text fill="#FFFFFF" font-family="Calibri,Calibri_MSFontService,sans-serif" font-weight="400" font-size="37" transform="matrix(1 0 0 1 1042.57 54)">More work on <tspan font-size="37" x="37.5834" y="41">Section 2</tspan></text><path d="M586.486 134.087 599.876 131.896 597.077 135.792 687.034 200.448 681.434 208.239 591.477 143.582 588.677 147.478Z" stroke="#ED7D31" stroke-width="2.29167" stroke-miterlimit="8" fill="none" fill-rule="evenodd"/><path d="M684.5 155.7C684.5 148.962 689.962 143.5 696.7 143.5L917.3 143.5C924.038 143.5 929.5 148.962 929.5 155.7L929.5 253.3C929.5 260.038 924.038 265.5 917.3 265.5L696.7 265.5C689.962 265.5 684.5 260.038 684.5 253.3Z" stroke="#BC8C00" stroke-width="4.58333" stroke-miterlimit="8" fill="#FFC000" fill-rule="evenodd"/><text fill="#FFFFFF" font-family="Calibri,Calibri_MSFontService,sans-serif" font-weight="400" font-size="37" transform="matrix(1 0 0 1 723.506 194)">Worked on <tspan font-size="37" x="14.5291" y="41">Section 3</tspan></text><path d="M929 204.5 938.5 195 938.5 199.75 1030 199.75 1030 209.25 938.5 209.25 938.5 214Z" stroke="#ED7D31" stroke-width="2.29167" stroke-miterlimit="8" fill="none" fill-rule="evenodd"/><path d="M1030.5 155.7C1030.5 148.962 1035.96 143.5 1042.7 143.5L1286.3 143.5C1293.04 143.5 1298.5 148.962 1298.5 155.7L1298.5 253.3C1298.5 260.038 1293.04 265.5 1286.3 265.5L1042.7 265.5C1035.96 265.5 1030.5 260.038 1030.5 253.3Z" stroke="#BC8C00" stroke-width="4.58333" stroke-miterlimit="8" fill="#FFC000" fill-rule="evenodd"/><text fill="#FFFFFF" font-family="Calibri,Calibri_MSFontService,sans-serif" font-weight="400" font-size="37" transform="matrix(1 0 0 1 1058.07 194)">More work on <tspan font-size="37" x="37.5834" y="41">Section 3</tspan></text><path d="M1298 204.5 1307.5 195 1307.5 199.75 1393 199.75 1393 209.25 1307.5 209.25 1307.5 214Z" stroke="#ED7D31" stroke-width="2.29167" stroke-miterlimit="8" fill="none" fill-rule="evenodd"/><path d="M1268.29 64.4223 1277.61 57.4027 1277.04 61.4876 1749.89 128.033 1748.74 136.202 1275.89 69.6569 1275.31 73.7413Z" stroke="#ED7D31" stroke-width="2.29167" stroke-miterlimit="8" fill="#FFFFFF" fill-rule="evenodd"/><path d="M1393.5 155.7C1393.5 148.962 1398.96 143.5 1405.7 143.5L1625.3 143.5C1632.04 143.5 1637.5 148.962 1637.5 155.7L1637.5 253.3C1637.5 260.038 1632.04 265.5 1625.3 265.5L1405.7 265.5C1398.96 265.5 1393.5 260.038 1393.5 253.3Z" stroke="#BC8C00" stroke-width="4.58333" stroke-miterlimit="8" fill="#FFC000" fill-rule="evenodd"/><text fill="#FFFFFF" font-family="Calibri,Calibri_MSFontService,sans-serif" font-weight="400" font-size="37" transform="matrix(1 0 0 1 1435.12 174)">Even more <tspan font-size="37" x="18.9979" y="41">work on </tspan><tspan font-size="37" x="11.573" y="81">Section 3</tspan></text><path d="M1637.27 204.343 1639.86 191.024 1642.54 195 1732.95 133.996 1738.31 141.949 1647.91 202.953 1650.59 206.929Z" stroke="#ED7D31" stroke-width="2.29167" stroke-miterlimit="8" fill="none" fill-rule="evenodd"/><path d="M1736.5 89.6998C1736.5 82.962 1741.96 77.4998 1748.7 77.4998L1968.3 77.4998C1975.04 77.4998 1980.5 82.962 1980.5 89.6998L1980.5 187.3C1980.5 194.038 1975.04 199.5 1968.3 199.5L1748.7 199.5C1741.96 199.5 1736.5 194.038 1736.5 187.3Z" stroke="#507E32" stroke-width="4.58333" stroke-miterlimit="8" fill="#70AD47" fill-rule="evenodd"/><text fill="#FFFFFF" font-family="Calibri,Calibri_MSFontService,sans-serif" font-weight="400" font-size="37" transform="matrix(1 0 0 1 1802.91 148)">Merge!</text></g></svg>