<svg width="2367" height="418" xmlns="http://www.w3.org/2000/svg" xmlns:xlink="http://www.w3.org/1999/xlink" overflow="hidden"><defs><clipPath id="clip0"><rect x="0" y="0" width="2367" height="418"/></clipPath><linearGradient x1="997" y1="227" x2="997" y2="368" gradientUnits="userSpaceOnUse" spreadMethod="reflect" id="fill1"><stop offset="0" stop-color="#FFC746"/><stop offset="0.5" stop-color="#FFC600"/><stop offset="1" stop-color="#E5B600"/></linearGradient><linearGradient x1="1392" y1="227" x2="1392" y2="368" gradientUnits="userSpaceOnUse" spreadMethod="reflect" id="fill2"><stop offset="0" stop-color="#FFC746"/><stop offset="0.5" stop-color="#FFC600"/><stop offset="1" stop-color="#E5B600"/></linearGradient><linearGradient x1="1787" y1="227" x2="1787" y2="368" gradientUnits="userSpaceOnUse" spreadMethod="reflect" id="fill3"><stop offset="0" stop-color="#FFC746"/><stop offset="0.5" stop-color="#FFC600"/><stop offset="1" stop-color="#E5B600"/></linearGradient><linearGradient x1="2182.5" y1="124" x2="2182.5" y2="265" gradientUnits="userSpaceOnUse" spreadMethod="reflect" id="fill4"><stop offset="0" stop-color="#81B861"/><stop offset="0.5" stop-color="#6FB242"/><stop offset="1" stop-color="#61A235"/></linearGradient></defs><g clip-path="url(#clip0)"><rect x="0" y="0" width="2367" height="418" fill="#FFFFFF"/><path d="M65.5002 160.6C65.5002 152.813 71.813 146.5 79.6002 146.5L333.4 146.5C341.187 146.5 347.5 152.813 347.5 160.6L347.5 273.4C347.5 281.187 341.187 287.5 333.4 287.5L79.6002 287.5C71.813 287.5 65.5002 281.187 65.5002 273.4Z" stroke="#FFFFFF" stroke-width="4.58333" stroke-miterlimit="8" fill="#4472C4" fill-rule="evenodd"/><text fill="#FFFFFF" font-family="Calibri,Calibri_MSFontService,sans-serif" font-weight="400" font-size="37" transform="matrix(1 0 0 1 87.3809 206)">Started working <tspan font-size="37" x="22.6875" y="41">on the paper</tspan></text><path d="M347.5 215.026 457.036 215.026 457.036 218.464 347.5 218.464ZM430.402 199.219 460.447 216.745 430.402 234.271C429.582 234.75 428.53 234.473 428.052 233.653 427.573 232.833 427.85 231.78 428.67 231.302L456.17 215.26 456.17 218.23 428.67 202.188C427.85 201.71 427.573 200.657 428.052 199.837 428.53 199.017 429.582 198.741 430.402 199.219Z" fill="#4472C4"/><path d="M460.5 160.6C460.5 152.813 466.813 146.5 474.6 146.5L729.4 146.5C737.187 146.5 743.5 152.813 743.5 160.6L743.5 273.4C743.5 281.187 737.187 287.5 729.4 287.5L474.6 287.5C466.813 287.5 460.5 281.187 460.5 273.4Z" stroke="#FFFFFF" stroke-width="4.58333" stroke-miterlimit="8" fill="#4472C4" fill-rule="evenodd"/><text fill="#FFFFFF" font-family="Calibri,Calibri_MSFontService,sans-serif" font-weight="400" font-size="37" transform="matrix(1 0 0 1 489.27 206)">Wrote proof of <tspan font-size="37" x="12.8333" y="41">Proposition 3</tspan></text><path d="M741.595 215.327 851.772 136.138 853.778 138.929 743.602 218.119ZM820.918 138.847 855.544 135.543 841.376 167.31C840.99 168.177 839.973 168.566 839.106 168.18 838.24 167.793 837.85 166.777 838.237 165.91L851.205 136.834 852.938 139.245 821.245 142.269C820.3 142.359 819.461 141.666 819.371 140.721 819.28 139.776 819.973 138.937 820.918 138.847Z" fill="#4472C4"/><path d="M856.5 79.6002C856.5 71.813 862.813 65.5002 870.6 65.5002L1124.4 65.5002C1132.19 65.5002 1138.5 71.813 1138.5 79.6002L1138.5 192.4C1138.5 200.187 1132.19 206.5 1124.4 206.5L870.6 206.5C862.813 206.5 856.5 200.187 856.5 192.4Z" stroke="#FFFFFF" stroke-width="4.58333" stroke-miterlimit="8" fill="#4472C4" fill-rule="evenodd"/><text fill="#FFFFFF" font-family="Calibri,Calibri_MSFontService,sans-serif" font-weight="400" font-size="37" transform="matrix(1 0 0 1 913.8 125)">Worked on <tspan font-size="37" x="14.5062" y="41">Section 2</tspan></text><path d="M1138.5 134.026 1248.04 134.026 1248.04 137.464 1138.5 137.464ZM1221.4 118.219 1251.45 135.745 1221.4 153.271C1220.58 153.75 1219.53 153.473 1219.05 152.653 1218.57 151.833 1218.85 150.78 1219.67 150.302L1247.17 134.26 1247.17 137.23 1219.67 121.188C1218.85 120.71 1218.57 119.657 1219.05 118.837 1219.53 118.017 1220.58 117.74 1221.4 118.219Z" fill="#4472C4"/><path d="M1251.5 79.6002C1251.5 71.813 1257.81 65.5002 1265.6 65.5002L1519.4 65.5002C1527.19 65.5002 1533.5 71.813 1533.5 79.6002L1533.5 192.4C1533.5 200.187 1527.19 206.5 1519.4 206.5L1265.6 206.5C1257.81 206.5 1251.5 200.187 1251.5 192.4Z" stroke="#FFFFFF" stroke-width="4.58333" stroke-miterlimit="8" fill="#4472C4" fill-rule="evenodd"/><text fill="#FFFFFF" font-family="Calibri,Calibri_MSFontService,sans-serif" font-weight="400" font-size="37" transform="matrix(1 0 0 1 1286.03 125)">More work on <tspan font-size="37" x="37.5604" y="41">Section 2</tspan></text><path d="M743.602 215.327 853.778 294.517 851.772 297.308 741.596 218.119ZM841.377 266.136 855.545 297.903 820.919 294.599C819.974 294.509 819.281 293.67 819.371 292.725 819.461 291.78 820.3 291.087 821.245 291.177L852.938 294.201 851.205 296.612 838.237 267.536C837.85 266.669 838.24 265.653 839.107 265.266 839.974 264.88 840.99 265.269 841.377 266.136Z" fill="#4472C4"/><path d="M856 241.1C856 233.313 862.313 227 870.1 227L1123.9 227C1131.69 227 1138 233.313 1138 241.1L1138 353.9C1138 361.687 1131.69 368 1123.9 368L870.1 368C862.313 368 856 361.687 856 353.9Z" stroke="#FFC000" stroke-width="2.29167" stroke-miterlimit="8" fill="url(#fill1)" fill-rule="evenodd"/><text fill="#FFFFFF" font-family="Calibri,Calibri_MSFontService,sans-serif" font-weight="400" font-size="37" transform="matrix(1 0 0 1 913.8 288)">Worked on <tspan font-size="37" x="14.5062" y="41">Section 3</tspan></text><path d="M1138.5 297.026 1248.04 297.026 1248.04 300.464 1138.5 300.464ZM1221.4 281.219 1251.45 298.745 1221.4 316.271C1220.58 316.75 1219.53 316.473 1219.05 315.653 1218.57 314.833 1218.85 313.78 1219.67 313.302L1247.17 297.26 1247.17 300.23 1219.67 284.188C1218.85 283.71 1218.57 282.657 1219.05 281.837 1219.53 281.017 1220.58 280.74 1221.4 281.219Z" fill="#4472C4"/><path d="M1251 241.1C1251 233.313 1257.31 227 1265.1 227L1518.9 227C1526.69 227 1533 233.313 1533 241.1L1533 353.9C1533 361.687 1526.69 368 1518.9 368L1265.1 368C1257.31 368 1251 361.687 1251 353.9Z" stroke="#FFC000" stroke-width="2.29167" stroke-miterlimit="8" fill="url(#fill2)" fill-rule="evenodd"/><text fill="#FFFFFF" font-family="Calibri,Calibri_MSFontService,sans-serif" font-weight="400" font-size="37" transform="matrix(1 0 0 1 1286.03 288)">More work on <tspan font-size="37" x="37.5604" y="41">Section 3</tspan></text><path d="M1533.5 297.026 1643.04 297.026 1643.04 300.464 1533.5 300.464ZM1616.4 281.219 1646.45 298.745 1616.4 316.271C1615.58 316.75 1614.53 316.473 1614.05 315.653 1613.57 314.833 1613.85 313.78 1614.67 313.302L1642.17 297.26 1642.17 300.23 1614.67 284.188C1613.85 283.71 1613.57 282.657 1614.05 281.837 1614.53 281.017 1615.58 280.74 1616.4 281.219Z" fill="#4472C4"/><path d="M1646 241.1C1646 233.313 1652.31 227 1660.1 227L1913.9 227C1921.69 227 1928 233.313 1928 241.1L1928 353.9C1928 361.687 1921.69 368 1913.9 368L1660.1 368C1652.31 368 1646 361.687 1646 353.9Z" stroke="#FFC000" stroke-width="2.29167" stroke-miterlimit="8" fill="url(#fill3)" fill-rule="evenodd"/><text fill="#FFFFFF" font-family="Calibri,Calibri_MSFontService,sans-serif" font-weight="400" font-size="37" transform="matrix(1 0 0 1 1665.67 288)">Even more work <tspan font-size="37" x="29.7687" y="41">on Section 3</tspan></text><path d="M1927.3 296.629 2037.73 195.799 2040.05 198.337 1929.62 299.168ZM2007.4 202.085 2041.41 194.768 2031.04 227.97C2030.76 228.876 2029.79 229.381 2028.89 229.098 2027.98 228.815 2027.48 227.851 2027.76 226.945L2037.25 196.556 2039.25 198.748 2008.13 205.445C2007.2 205.645 2006.29 205.054 2006.09 204.126 2005.89 203.198 2006.48 202.284 2007.4 202.085Z" fill="#4472C4"/><path d="M2041 138.1C2041 130.313 2047.31 124 2055.1 124L2309.9 124C2317.69 124 2324 130.313 2324 138.1L2324 250.9C2324 258.688 2317.69 265 2309.9 265L2055.1 265C2047.31 265 2041 258.688 2041 250.9Z" stroke="#70AD47" stroke-width="2.29167" stroke-miterlimit="8" fill="url(#fill4)" fill-rule="evenodd"/><text fill="#FFFFFF" font-family="Calibri,Calibri_MSFontService,sans-serif" font-weight="400" font-size="37" transform="matrix(1 0 0 1 2127.67 205)">Merge!</text><path d="M1533.7 134.793 2042.69 193.612 2042.29 197.026 1533.3 138.207ZM2018.04 174.85 2045.87 195.71 2014.01 209.671C2013.14 210.052 2012.13 209.656 2011.75 208.787 2011.37 207.918 2011.76 206.904 2012.63 206.523L2041.79 193.744 2041.45 196.694 2015.97 177.601C2015.22 177.032 2015.06 175.955 2015.63 175.195 2016.2 174.436 2017.28 174.281 2018.04 174.85Z" fill="#4472C4"/></g></svg>