<svg width="2286" height="448" xmlns="http://www.w3.org/2000/svg" xmlns:xlink="http://www.w3.org/1999/xlink" overflow="hidden"><defs><clipPath id="clip0"><rect x="563" y="394" width="2286" height="448"/></clipPath></defs><g clip-path="url(#clip0)" transform="translate(-563 -394)"><path d="M571.5 551.3C571.5 542.022 579.022 534.5 588.3 534.5L891.7 534.5C900.979 534.5 908.5 542.022 908.5 551.3L908.5 685.7C908.5 694.979 900.979 702.5 891.7 702.5L588.3 702.5C579.022 702.5 571.5 694.979 571.5 685.7Z" stroke="#FFFFFF" stroke-width="4.58333" stroke-miterlimit="8" fill="#4472C4" fill-rule="evenodd"/><text fill="#FFFFFF" font-family="Calibri,Calibri_MSFontService,sans-serif" font-weight="400" font-size="46" transform="matrix(1 0 0 1 591.243 605)">Started working <tspan font-size="46" x="28.3709" y="50">on the paper</tspan></text><path d="M908 618 920 606 920 612 1043 612 1043 624 920 624 920 630Z" stroke="#ED7D31" stroke-width="2.29167" stroke-miterlimit="8" fill="none" fill-rule="evenodd"/><path d="M1043.5 551.3C1043.5 542.022 1051.02 534.5 1060.3 534.5L1362.7 534.5C1371.98 534.5 1379.5 542.022 1379.5 551.3L1379.5 685.7C1379.5 694.979 1371.98 702.5 1362.7 702.5L1060.3 702.5C1051.02 702.5 1043.5 694.979 1043.5 685.7Z" stroke="#FFFFFF" stroke-width="4.58333" stroke-miterlimit="8" fill="#4472C4" fill-rule="evenodd"/><text fill="#FFFFFF" font-family="Calibri,Calibri_MSFontService,sans-serif" font-weight="400" font-size="46" transform="matrix(1 0 0 1 1070.81 605)">Wrote proof of <tspan font-size="46" x="16.0416" y="50">Proposition 3</tspan></text><path d="M1379.3 617.783 1382.09 600.762 1385.65 605.714 1510.4 516.046 1517.52 525.949 1392.76 615.617 1396.32 620.569Z" stroke="#ED7D31" stroke-width="2.29167" stroke-miterlimit="8" fill="none" fill-rule="evenodd"/><path d="M1514.5 454.3C1514.5 445.022 1522.02 437.5 1531.3 437.5L1834.7 437.5C1843.98 437.5 1851.5 445.022 1851.5 454.3L1851.5 588.7C1851.5 597.979 1843.98 605.5 1834.7 605.5L1531.3 605.5C1522.02 605.5 1514.5 597.979 1514.5 588.7Z" stroke="#FFFFFF" stroke-width="4.58333" stroke-miterlimit="8" fill="#4472C4" fill-rule="evenodd"/><text fill="#FFFFFF" font-family="Calibri,Calibri_MSFontService,sans-serif" font-weight="400" font-size="46" transform="matrix(1 0 0 1 1578.65 509)">Worked on <tspan font-size="46" x="18.1271" y="50">Section 2</tspan></text><path d="M1851 521 1863 509 1863 515 1985 515 1985 527 1863 527 1863 533Z" stroke="#ED7D31" stroke-width="2.29167" stroke-miterlimit="8" fill="none" fill-rule="evenodd"/><path d="M1985.5 454.3C1985.5 445.022 1993.02 437.5 2002.3 437.5L2305.7 437.5C2314.98 437.5 2322.5 445.022 2322.5 454.3L2322.5 588.7C2322.5 597.979 2314.98 605.5 2305.7 605.5L2002.3 605.5C1993.02 605.5 1985.5 597.979 1985.5 588.7Z" stroke="#FFFFFF" stroke-width="4.58333" stroke-miterlimit="8" fill="#4472C4" fill-rule="evenodd"/><text fill="#FFFFFF" font-family="Calibri,Calibri_MSFontService,sans-serif" font-weight="400" font-size="46" transform="matrix(1 0 0 1 2021.15 509)">More work on <tspan font-size="46" x="46.9335" y="50">Section 2</tspan></text><path d="M1379.3 617.783 1396.32 614.998 1392.76 619.95 1517.52 709.617 1510.4 719.521 1385.65 629.853 1382.09 634.804Z" stroke="#ED7D31" stroke-width="2.29167" stroke-miterlimit="8" fill="none" fill-rule="evenodd"/><path d="M1514.5 647.4C1514.5 638.066 1522.07 630.5 1531.4 630.5L1834.6 630.5C1843.93 630.5 1851.5 638.066 1851.5 647.4L1851.5 782.6C1851.5 791.934 1843.93 799.5 1834.6 799.5L1531.4 799.5C1522.07 799.5 1514.5 791.934 1514.5 782.6Z" stroke="#BC8C00" stroke-width="4.58333" stroke-miterlimit="8" fill="#FFC000" fill-rule="evenodd"/><text fill="#FFFFFF" font-family="Calibri,Calibri_MSFontService,sans-serif" font-weight="400" font-size="46" transform="matrix(1 0 0 1 1578.65 702)">Worked on <tspan font-size="46" x="18.1271" y="50">Section 3</tspan></text><path d="M1851 714.5 1863.5 702 1863.5 708.25 1990 708.25 1990 720.75 1863.5 720.75 1863.5 727Z" stroke="#ED7D31" stroke-width="2.29167" stroke-miterlimit="8" fill="none" fill-rule="evenodd"/><path d="M1990.5 647.4C1990.5 638.066 1998.07 630.5 2007.4 630.5L2343.6 630.5C2352.93 630.5 2360.5 638.066 2360.5 647.4L2360.5 782.6C2360.5 791.934 2352.93 799.5 2343.6 799.5L2007.4 799.5C1998.07 799.5 1990.5 791.934 1990.5 782.6Z" stroke="#BC8C00" stroke-width="4.58333" stroke-miterlimit="8" fill="#FFC000" fill-rule="evenodd"/><text fill="#FFFFFF" font-family="Calibri,Calibri_MSFontService,sans-serif" font-weight="400" font-size="46" transform="matrix(1 0 0 1 2042.51 702)">More work on <tspan font-size="46" x="46.9562" y="50">Section 3</tspan></text><path d="M2360 714.5 2372.5 702 2372.5 708.25 2490 708.25 2490 720.75 2372.5 720.75 2372.5 727Z" stroke="#ED7D31" stroke-width="2.29167" stroke-miterlimit="8" fill="none" fill-rule="evenodd"/><path d="M2490.5 647.4C2490.5 638.066 2498.07 630.5 2507.4 630.5L2810.6 630.5C2819.93 630.5 2827.5 638.066 2827.5 647.4L2827.5 782.6C2827.5 791.934 2819.93 799.5 2810.6 799.5L2507.4 799.5C2498.07 799.5 2490.5 791.934 2490.5 782.6Z" stroke="#BC8C00" stroke-width="4.58333" stroke-miterlimit="8" fill="#FFC000" fill-rule="evenodd"/><text fill="#FFFFFF" font-family="Calibri,Calibri_MSFontService,sans-serif" font-weight="400" font-size="46" transform="matrix(1 0 0 1 2506.55 702)">Even more work <tspan font-size="46" x="37.1936" y="50">on Section 3</tspan></text></g></svg>