<svg width="2285" height="448" xmlns="http://www.w3.org/2000/svg" xmlns:xlink="http://www.w3.org/1999/xlink" overflow="hidden"><defs><clipPath id="clip0"><rect x="567" y="393" width="2285" height="448"/></clipPath><linearGradient x1="1703" y1="630" x2="1703" y2="801" gradientUnits="userSpaceOnUse" spreadMethod="reflect" id="fill1"><stop offset="0" stop-color="#FFC746"/><stop offset="0.5" stop-color="#FFC600"/><stop offset="1" stop-color="#E5B600"/></linearGradient><linearGradient x1="2182" y1="630" x2="2182" y2="801" gradientUnits="userSpaceOnUse" spreadMethod="reflect" id="fill2"><stop offset="0" stop-color="#FFC746"/><stop offset="0.5" stop-color="#FFC600"/><stop offset="1" stop-color="#E5B600"/></linearGradient><linearGradient x1="2661" y1="630" x2="2661" y2="801" gradientUnits="userSpaceOnUse" spreadMethod="reflect" id="fill3"><stop offset="0" stop-color="#FFC746"/><stop offset="0.5" stop-color="#FFC600"/><stop offset="1" stop-color="#E5B600"/></linearGradient></defs><g clip-path="url(#clip0)" transform="translate(-567 -393)"><path d="M573.5 548.6C573.5 539.156 581.156 531.5 590.6 531.5L898.4 531.5C907.844 531.5 915.5 539.156 915.5 548.6L915.5 685.4C915.5 694.844 907.844 702.5 898.4 702.5L590.6 702.5C581.156 702.5 573.5 694.844 573.5 685.4Z" stroke="#FFFFFF" stroke-width="4.58333" stroke-miterlimit="8" fill="#4472C4" fill-rule="evenodd"/><text fill="#FFFFFF" font-family="Calibri,Calibri_MSFontService,sans-serif" font-weight="400" font-size="46" transform="matrix(1 0 0 1 595.77 605)">Started working <tspan font-size="46" x="28.3709" y="50">on the paper</tspan></text><path d="M915.5 615.199 1049.02 615.199 1049.02 618.637 915.5 618.637ZM1022.39 599.392 1052.43 616.918 1022.39 634.444C1021.57 634.923 1020.52 634.646 1020.04 633.826 1019.56 633.006 1019.84 631.953 1020.66 631.475L1048.16 615.434 1048.16 618.403 1020.66 602.361C1019.84 601.883 1019.56 600.83 1020.04 600.01 1020.52 599.19 1021.57 598.914 1022.39 599.392Z" fill="#4472C4"/><path d="M1052.5 548.6C1052.5 539.156 1060.16 531.5 1069.6 531.5L1378.4 531.5C1387.84 531.5 1395.5 539.156 1395.5 548.6L1395.5 685.4C1395.5 694.844 1387.84 702.5 1378.4 702.5L1069.6 702.5C1060.16 702.5 1052.5 694.844 1052.5 685.4Z" stroke="#FFFFFF" stroke-width="4.58333" stroke-miterlimit="8" fill="#4472C4" fill-rule="evenodd"/><text fill="#FFFFFF" font-family="Calibri,Calibri_MSFontService,sans-serif" font-weight="400" font-size="46" transform="matrix(1 0 0 1 1083.27 605)">Wrote proof of <tspan font-size="46" x="16.0417" y="50">Proposition 3</tspan></text><path d="M1393.59 615.481 1527.75 519.052 1529.76 521.844 1395.6 618.272ZM1496.9 521.761 1531.53 518.457 1517.36 550.224C1516.97 551.091 1515.96 551.48 1515.09 551.094 1514.22 550.707 1513.83 549.691 1514.22 548.824L1527.19 519.748 1528.92 522.159 1497.23 525.183C1496.28 525.273 1495.44 524.58 1495.35 523.635 1495.26 522.69 1495.96 521.851 1496.9 521.761Z" fill="#4472C4"/><path d="M1532.5 450.6C1532.5 441.156 1540.16 433.5 1549.6 433.5L1857.4 433.5C1866.84 433.5 1874.5 441.156 1874.5 450.6L1874.5 587.4C1874.5 596.844 1866.84 604.5 1857.4 604.5L1549.6 604.5C1540.16 604.5 1532.5 596.844 1532.5 587.4Z" stroke="#FFFFFF" stroke-width="4.58333" stroke-miterlimit="8" fill="#4472C4" fill-rule="evenodd"/><text fill="#FFFFFF" font-family="Calibri,Calibri_MSFontService,sans-serif" font-weight="400" font-size="46" transform="matrix(1 0 0 1 1599.05 506)">Worked on <tspan font-size="46" x="18.1271" y="50">Section 2</tspan></text><path d="M1874.5 517.199 2008.02 517.199 2008.02 520.637 1874.5 520.637ZM1981.39 501.392 2011.43 518.918 1981.39 536.444C1980.57 536.922 1979.52 536.645 1979.04 535.826 1978.56 535.006 1978.84 533.953 1979.66 533.475L2007.16 517.433 2007.16 520.402 1979.66 504.361C1978.84 503.882 1978.56 502.83 1979.04 502.01 1979.52 501.19 1980.57 500.913 1981.39 501.392Z" fill="#4472C4"/><path d="M2011.5 450.6C2011.5 441.156 2019.16 433.5 2028.6 433.5L2336.4 433.5C2345.84 433.5 2353.5 441.156 2353.5 450.6L2353.5 587.4C2353.5 596.844 2345.84 604.5 2336.4 604.5L2028.6 604.5C2019.16 604.5 2011.5 596.844 2011.5 587.4Z" stroke="#FFFFFF" stroke-width="4.58333" stroke-miterlimit="8" fill="#4472C4" fill-rule="evenodd"/><text fill="#FFFFFF" font-family="Calibri,Calibri_MSFontService,sans-serif" font-weight="400" font-size="46" transform="matrix(1 0 0 1 2049.48 506)">More work on <tspan font-size="46" x="46.9334" y="50">Section 2</tspan></text><path d="M1395.6 615.481 1529.76 711.91 1527.75 714.701 1393.59 618.272ZM1517.36 683.529 1531.53 715.296 1496.9 711.993C1495.96 711.902 1495.26 711.063 1495.35 710.118 1495.44 709.173 1496.28 708.48 1497.23 708.571L1528.92 711.595 1527.19 714.006 1514.22 684.93C1513.83 684.063 1514.22 683.046 1515.09 682.66 1515.96 682.273 1516.97 682.662 1517.36 683.529Z" fill="#4472C4"/><path d="M1532 647.1C1532 637.656 1539.66 630 1549.1 630L1856.9 630C1866.34 630 1874 637.656 1874 647.1L1874 783.9C1874 793.344 1866.34 801 1856.9 801L1549.1 801C1539.66 801 1532 793.344 1532 783.9Z" stroke="#FFC000" stroke-width="2.29167" stroke-miterlimit="8" fill="url(#fill1)" fill-rule="evenodd"/><text fill="#FFFFFF" font-family="Calibri,Calibri_MSFontService,sans-serif" font-weight="400" font-size="46" transform="matrix(1 0 0 1 1599.05 703)">Worked on <tspan font-size="46" x="18.1271" y="50">Section 3</tspan></text><path d="M1874.5 714.199 2008.02 714.199 2008.02 717.637 1874.5 717.637ZM1981.39 698.392 2011.43 715.918 1981.39 733.444C1980.57 733.923 1979.52 733.646 1979.04 732.826 1978.56 732.006 1978.84 730.953 1979.66 730.475L2007.16 714.434 2007.16 717.403 1979.66 701.361C1978.84 700.883 1978.56 699.83 1979.04 699.01 1979.52 698.19 1980.57 697.914 1981.39 698.392Z" fill="#4472C4"/><path d="M2011 647.1C2011 637.656 2018.66 630 2028.1 630L2335.9 630C2345.34 630 2353 637.656 2353 647.1L2353 783.9C2353 793.344 2345.34 801 2335.9 801L2028.1 801C2018.66 801 2011 793.344 2011 783.9Z" stroke="#FFC000" stroke-width="2.29167" stroke-miterlimit="8" fill="url(#fill2)" fill-rule="evenodd"/><text fill="#FFFFFF" font-family="Calibri,Calibri_MSFontService,sans-serif" font-weight="400" font-size="46" transform="matrix(1 0 0 1 2049.48 703)">More work on <tspan font-size="46" x="46.9334" y="50">Section 3</tspan></text><path d="M2353.5 714.199 2487.02 714.199 2487.02 717.637 2353.5 717.637ZM2460.39 698.392 2490.43 715.918 2460.39 733.444C2459.57 733.923 2458.52 733.646 2458.04 732.826 2457.56 732.006 2457.84 730.953 2458.66 730.475L2486.16 714.434 2486.16 717.403 2458.66 701.361C2457.84 700.883 2457.56 699.83 2458.04 699.01 2458.52 698.19 2459.57 697.914 2460.39 698.392Z" fill="#4472C4"/><path d="M2490 647.1C2490 637.656 2497.66 630 2507.1 630L2814.9 630C2824.34 630 2832 637.656 2832 647.1L2832 783.9C2832 793.344 2824.34 801 2814.9 801L2507.1 801C2497.66 801 2490 793.344 2490 783.9Z" stroke="#FFC000" stroke-width="2.29167" stroke-miterlimit="8" fill="url(#fill3)" fill-rule="evenodd"/><text fill="#FFFFFF" font-family="Calibri,Calibri_MSFontService,sans-serif" font-weight="400" font-size="46" transform="matrix(1 0 0 1 2509.15 703)">Even more work <tspan font-size="46" x="37.1936" y="50">on Section 3</tspan></text></g></svg>