<svg width="2301" height="183" xmlns="http://www.w3.org/2000/svg" xmlns:xlink="http://www.w3.org/1999/xlink" overflow="hidden"><defs><clipPath id="clip0"><rect x="442" y="142" width="2301" height="183"/></clipPath></defs><g clip-path="url(#clip0)" transform="translate(-442 -142)"><path d="M466.5 165.6C466.5 156.156 474.156 148.5 483.6 148.5L791.4 148.5C800.844 148.5 808.5 156.156 808.5 165.6L808.5 302.4C808.5 311.844 800.844 319.5 791.4 319.5L483.6 319.5C474.156 319.5 466.5 311.844 466.5 302.4Z" stroke="#FFFFFF" stroke-width="4.58333" stroke-miterlimit="8" fill="#4472C4" fill-rule="evenodd"/><text fill="#FFFFFF" font-family="Calibri,Calibri_MSFontService,sans-serif" font-weight="400" font-size="50" transform="matrix(1 0 0 1 473.708 220)">Started working <tspan font-size="50" x="31.2354" y="55">on the paper</tspan></text><path d="M808.5 232.168 942.212 232.168 942.212 235.606 808.5 235.606ZM915.578 216.36 945.623 233.887 915.578 251.413C914.758 251.891 913.706 251.614 913.228 250.794 912.749 249.975 913.026 248.922 913.846 248.444L941.346 232.402 941.346 235.371 913.846 219.33C913.026 218.851 912.749 217.799 913.228 216.979 913.706 216.159 914.758 215.882 915.578 216.36Z" fill="#4472C4"/><path d="M946.5 165.6C946.5 156.156 954.156 148.5 963.6 148.5L1271.4 148.5C1280.84 148.5 1288.5 156.156 1288.5 165.6L1288.5 302.4C1288.5 311.844 1280.84 319.5 1271.4 319.5L963.6 319.5C954.156 319.5 946.5 311.844 946.5 302.4Z" stroke="#FFFFFF" stroke-width="4.58333" stroke-miterlimit="8" fill="#4472C4" fill-rule="evenodd"/><text fill="#FFFFFF" font-family="Calibri,Calibri_MSFontService,sans-serif" font-weight="400" font-size="50" transform="matrix(1 0 0 1 962.733 220)">Wrote proof of <tspan font-size="50" x="17.6458" y="55">Proposition 3</tspan></text><path d="M1288.5 232.168 1422.21 232.168 1422.21 235.606 1288.5 235.606ZM1395.58 216.36 1425.62 233.887 1395.58 251.413C1394.76 251.891 1393.71 251.614 1393.23 250.794 1392.75 249.975 1393.03 248.922 1393.85 248.444L1421.35 232.402 1421.35 235.371 1393.85 219.33C1393.03 218.851 1392.75 217.799 1393.23 216.979 1393.71 216.159 1394.76 215.882 1395.58 216.36Z" fill="#4472C4"/><path d="M1425.5 165.6C1425.5 156.156 1433.16 148.5 1442.6 148.5L1751.4 148.5C1760.84 148.5 1768.5 156.156 1768.5 165.6L1768.5 302.4C1768.5 311.844 1760.84 319.5 1751.4 319.5L1442.6 319.5C1433.16 319.5 1425.5 311.844 1425.5 302.4Z" stroke="#FFFFFF" stroke-width="4.58333" stroke-miterlimit="8" fill="#4472C4" fill-rule="evenodd"/><text fill="#FFFFFF" font-family="Calibri,Calibri_MSFontService,sans-serif" font-weight="400" font-size="50" transform="matrix(1 0 0 1 1461.02 220)">Fixed issue in <tspan font-size="50" x="41.8458" y="55">Lemma 2</tspan></text><path d="M1768.5 232.168 1902.21 232.168 1902.21 235.606 1768.5 235.606ZM1875.58 216.36 1905.62 233.887 1875.58 251.413C1874.76 251.891 1873.71 251.614 1873.23 250.794 1872.75 249.975 1873.03 248.922 1873.85 248.444L1901.35 232.402 1901.35 235.371 1873.85 219.33C1873.03 218.851 1872.75 217.799 1873.23 216.979 1873.71 216.159 1874.76 215.882 1875.58 216.36Z" fill="#4472C4"/><path d="M1905.5 165.6C1905.5 156.156 1913.16 148.5 1922.6 148.5L2231.4 148.5C2240.84 148.5 2248.5 156.156 2248.5 165.6L2248.5 302.4C2248.5 311.844 2240.84 319.5 2231.4 319.5L1922.6 319.5C1913.16 319.5 1905.5 311.844 1905.5 302.4Z" stroke="#FFFFFF" stroke-width="4.58333" stroke-miterlimit="8" fill="#4472C4" fill-rule="evenodd"/><text fill="#FFFFFF" font-family="Calibri,Calibri_MSFontService,sans-serif" font-weight="400" font-size="50" transform="matrix(1 0 0 1 1971.29 220)">Wrote the <tspan font-size="50" x="21.8396" y="55">abstract</tspan></text><path d="M2248.5 232.168 2382.21 232.168 2382.21 235.606 2248.5 235.606ZM2355.58 216.36 2385.62 233.887 2355.58 251.413C2354.76 251.891 2353.71 251.614 2353.23 250.794 2352.75 249.975 2353.03 248.922 2353.85 248.444L2381.35 232.402 2381.35 235.371 2353.85 219.33C2353.03 218.851 2352.75 217.799 2353.23 216.979 2353.71 216.159 2354.76 215.882 2355.58 216.36Z" fill="#4472C4"/><path d="M2385.5 165.6C2385.5 156.156 2393.16 148.5 2402.6 148.5L2711.4 148.5C2720.84 148.5 2728.5 156.156 2728.5 165.6L2728.5 302.399C2728.5 311.844 2720.84 319.499 2711.4 319.499L2402.6 319.499C2393.16 319.499 2385.5 311.844 2385.5 302.399Z" stroke="#507E32" stroke-width="4.58333" stroke-miterlimit="8" fill="#70AD47" fill-rule="evenodd"/><text fill="#FFFFFF" font-family="Calibri,Calibri_MSFontService,sans-serif" font-weight="400" font-size="50" transform="matrix(1 0 0 1 2401.95 248)">Posted to arXiv</text></g></svg>